<svg preserveAspectRatio="none" overflow="visible" style="display: block;" width="13.9958" height="14" viewBox="0 0 13.9958 14" fill="none" xmlns="http://www.w3.org/2000/svg">
<path id="Vector" d="M13.2458 9C13.6255 9 13.9393 9.2822 13.9889 9.6482L13.9958 9.75V11.2475C13.9958 12.7083 12.8567 13.9034 11.4177 13.9922L11.2504 13.9975L9.7513 14C9.3371 14.0007 9.0007 13.6655 9 13.2513C8.99936 12.8716 9.281 12.5573 9.647 12.507L9.7487 12.5L11.2479 12.4975C11.8943 12.4964 12.4255 12.0047 12.4893 11.3751L12.4958 11.2475V9.75C12.4958 9.3358 12.8316 9 13.2458 9ZM0.75 9C1.16421 9 1.5 9.3358 1.5 9.75V11.2475C1.5 11.937 2.05836 12.4963 2.74789 12.4975L4.24703 12.5C4.66125 12.5007 4.99646 12.8371 4.99576 13.2513C4.99506 13.6655 4.65871 14.0007 4.2445 14L2.74535 13.9975C1.22839 13.9949 0 12.7644 0 11.2475V9.75C0 9.3358 0.33579 9 0.75 9ZM7 5C8.10457 5 9 5.89543 9 7C9 8.10457 8.10457 9 7 9C5.89543 9 5 8.10457 5 7C5 5.89543 5.89543 5 7 5ZM9.7513 1.08807e-06L11.2504 0.00254108C12.7674 0.00510108 13.9958 1.23556 13.9958 2.75253V4.25C13.9958 4.66422 13.66 5 13.2458 5C12.8316 5 12.4958 4.66422 12.4958 4.25V2.75253C12.4958 2.063 11.9374 1.5037 11.2479 1.50253L9.7487 1.5C9.3345 1.4993 8.9993 1.16295 9 0.748731C9.0007 0.334521 9.3371 -0.000696912 9.7513 1.08807e-06ZM4.24873 1.08807e-06C4.66295 -0.000695912 4.9993 0.334521 5 0.748731C5.0007 1.16295 4.66548 1.4993 4.25127 1.5L2.75212 1.50253C2.06259 1.5037 1.50424 2.063 1.50424 2.75253V4.25C1.50424 4.66422 1.16845 5 0.75424 5C0.34002 5 0.00424004 4.66422 0.00424004 4.25V2.75253C0.00424004 1.23556 1.23262 0.00510108 2.74959 0.00254108L4.24873 1.08807e-06Z" fill="black"/>
</svg>
